<?xml version="1.0" encoding="UTF-8"?>
<svg width="182px" height="43px" viewBox="0 0 182 43" version="1.1" xmlns="http://www.w3.org/2000/svg" xmlns:xlink="http://www.w3.org/1999/xlink">
    <!-- Generator: Sketch 53.2 (72643) - https://sketchapp.com -->
    <title>first street logo</title>
    <desc>Created with Sketch.</desc>
    <g id="Symbols" stroke="none" stroke-width="1" fill="none" fill-rule="evenodd">
        <g id="nav" transform="translate(-71.000000, -20.000000)" fill="#FFFFFF">
            <g id="Top-Bar" transform="translate(71.000000, 20.000000)">
                <g id="first-street-logo" transform="translate(0.500000, 0.225620)">
                    <g id="first-street-copy-2" transform="translate(0.000172, 0.026843)">
                        <path d="M1.31335627,34.8138364 L1.31335627,41.7129958 L0.208182863,41.9614963 L0.175485425,42.3407866 L3.77874309,42.3407866 L3.85721694,41.8961014 L2.28120043,41.7129958 L2.28773992,38.5544233 L4.25612568,38.5544233 L4.41307338,39.7838469 L4.86429803,39.7119126 L5.05394317,37.1615124 L4.58963955,37.2269073 L4.32152056,38.0770407 L2.28773992,38.0770407 L2.28773992,34.6699676 L5.53786525,34.6699676 L5.7209709,36.2394447 L6.16565606,36.3048395 L6.4076171,34.205664 L0.195103887,34.205664 L0.142787987,34.5914938 L1.31335627,34.8138364 Z M24.0157111,41.9157199 C23.403176,42.3168105 22.6696708,42.5173528 21.8151735,42.5173528 C21.113265,42.5173528 20.4898401,42.3287994 19.9448801,41.9516871 C19.3999201,41.5745747 18.9770374,41.0634099 18.6762195,40.4181772 C18.3754015,39.7729446 18.2249948,39.0623274 18.2249948,38.2863043 C18.2249948,37.4492457 18.3895703,36.7070213 18.7187262,36.0596088 C19.047882,35.4121963 19.5187204,34.9086607 20.1312555,34.5489871 C20.7437905,34.1893135 21.4576775,34.0094794 22.2729377,34.0094794 C23.018443,34.0094794 23.6614862,34.1969428 24.2020865,34.5718753 C24.7426868,34.9468078 25.1546704,35.4568828 25.4380496,36.1021154 C25.7214289,36.7473481 25.8631163,37.4666845 25.8631163,38.2601463 C25.8631163,38.9925726 25.70835,39.6846615 25.3988127,40.3364336 C25.0892754,40.9882058 24.6282462,41.5146293 24.0157111,41.9157199 Z M23.4925521,35.0656066 C23.0674833,34.6972137 22.5541386,34.5130199 21.9525028,34.5130199 C21.3377879,34.5130199 20.8331624,34.671056 20.4386114,34.9871328 C20.0440603,35.3032096 19.7585056,35.7162831 19.5819385,36.2263657 C19.4053715,36.7364483 19.3170893,37.2966588 19.3170893,37.907014 C19.3170893,38.6525193 19.42172,39.3326192 19.6309847,39.9473341 C19.8402493,40.562049 20.1563214,41.0514158 20.5792104,41.4154491 C21.0020993,41.7794824 21.5187137,41.9614963 22.1290689,41.9614963 C22.7394242,41.9614963 23.2429597,41.7980108 23.6396906,41.4710347 C24.0364215,41.1440587 24.3252459,40.7244458 24.5061727,40.2121834 C24.6870994,39.699921 24.7775614,39.1582388 24.7775614,38.5871207 C24.7775614,37.8459751 24.6696609,37.1658752 24.4538568,36.5468006 C24.2380526,35.927726 23.9176209,35.4339996 23.4925521,35.0656066 Z M38.8379834,39.2999249 C38.8379834,41.4448875 39.8559534,42.5173528 41.8919241,42.5173528 C42.9818441,42.5173528 43.775294,42.2274384 44.2722976,41.6476009 C44.7693011,41.0677634 45.0221588,40.2023799 45.0308781,39.0514243 L45.0635756,34.7811389 L46.1491305,34.5784148 L46.2079859,34.205664 L43.258677,34.205664 L43.2063611,34.5784148 L44.4096268,34.7942179 L44.4030873,39.2933854 C44.4030873,40.143523 44.2079946,40.7843864 43.8178032,41.2159947 C43.4276118,41.6476031 42.8750306,41.863404 42.1600431,41.863404 C41.4232571,41.863404 40.8466981,41.6399737 40.4303486,41.1931065 C40.0139992,40.7462393 39.8058276,40.0323524 39.8058276,39.0514243 L39.8058276,34.7811389 L40.911001,34.5784148 L40.9567774,34.205664 L37.7001125,34.205664 L37.6412572,34.5784148 L38.8379834,34.7942179 L38.8379834,39.2999249 Z M59.1828529,34.8399943 L59.1828529,41.7129958 L58.0907585,41.9614963 L58.0515216,42.3407866 L60.981212,42.3407866 L61.0466069,41.9287989 L59.8433412,41.7522327 L59.8433412,35.4939431 L64.5059958,42.4977343 L65.1861026,42.3604051 L65.1861026,34.7811389 L66.2716575,34.5784148 L66.3435919,34.205664 L63.4008224,34.205664 L63.3419671,34.5784148 L64.5517723,34.7942179 L64.5517723,40.8694019 L60.189934,34.205664 L58.0515216,34.205664 L57.9861267,34.5718753 L59.1828529,34.8399943 Z M83.8372448,41.7555025 C83.1048186,42.1456938 82.2045581,42.3407866 81.1364365,42.3407866 L78.1086537,42.3407866 L78.1805881,41.9614963 L79.2988404,41.6802983 L79.2988404,34.9642446 L78.1675091,34.7942179 L78.232904,34.4280066 C78.9260931,34.3190146 79.5233603,34.2383617 80.0247236,34.1860456 C80.5260868,34.1337294 81.0034646,34.1075717 81.4568713,34.1075717 C82.5642301,34.1075717 83.4568612,34.2895856 84.1347915,34.6536189 C84.8127218,35.0176522 85.2955491,35.49503 85.583288,36.0857667 C85.8710269,36.6765034 86.0148942,37.3358951 86.0148942,38.0639617 C86.0148942,38.8399848 85.8350601,39.5516919 85.4753865,40.1991044 C85.1157129,40.8465169 84.5696711,41.3653111 83.8372448,41.7555025 Z M81.2214498,34.6176517 C80.754964,34.6176517 80.4323525,34.6285508 80.2536056,34.6503492 L80.2536056,41.8241671 L81.3130026,41.8241671 C82.0672273,41.8241671 82.7189897,41.6792099 83.2683094,41.3892911 C83.8176291,41.0993724 84.2350622,40.6971979 84.5206213,40.1827557 C84.8061803,39.6683134 84.9489577,39.0819452 84.9489577,38.4236335 C84.9489577,37.6824879 84.8083601,37.025276 84.5271608,36.451978 C84.2459614,35.8786801 83.8252586,35.4296397 83.2650397,35.1048436 C82.7048208,34.7800474 82.0236309,34.6176517 81.2214498,34.6176517 Z M100.650791,42.3407866 L97.8126535,42.3407866 L97.8649694,41.9614963 L98.8131951,41.6802983 L101.677491,34.1925851 L102.344518,34.0487163 L104.973392,41.7195353 L105.856223,41.9222594 L105.803907,42.3407866 L102.782664,42.3407866 L102.848059,41.9614963 L103.953232,41.6802983 L103.142336,39.3653197 L100.363054,39.3653197 L99.5063808,41.7195353 L100.716186,41.9287989 L100.650791,42.3407866 Z M101.80828,35.4089297 L100.546159,38.8487002 L102.985388,38.8487002 L101.80828,35.4089297 Z M117.725917,36.3048395 L118.19022,36.3767739 L118.484497,34.6699676 L120.609831,34.6699676 L120.609831,41.7129958 L119.485039,41.9614963 L119.445802,42.3407866 L122.695927,42.3407866 L122.774401,41.9287989 L121.590754,41.7260748 L121.590754,34.6699676 L123.801101,34.6699676 L123.977667,36.324458 L124.45505,36.3963924 L124.677392,34.205664 L117.667061,34.205664 L117.725917,36.3048395 Z M137.632641,34.7942179 L137.632641,41.7129958 L136.573244,41.9614963 L136.527467,42.3407866 L139.777593,42.3407866 L139.842988,41.9287989 L138.620103,41.7522327 L138.620103,34.7811389 L139.744895,34.5784148 L139.803751,34.205664 L136.527467,34.205664 L136.475151,34.5784148 L137.632641,34.7942179 Z M157.490318,41.9157199 C156.877783,42.3168105 156.144278,42.5173528 155.289781,42.5173528 C154.587872,42.5173528 153.964447,42.3287994 153.419487,41.9516871 C152.874527,41.5745747 152.451645,41.0634099 152.150827,40.4181772 C151.850009,39.7729446 151.699602,39.0623274 151.699602,38.2863043 C151.699602,37.4492457 151.864178,36.7070213 152.193334,36.0596088 C152.522489,35.4121963 152.993328,34.9086607 153.605863,34.5489871 C154.218398,34.1893135 154.932285,34.0094794 155.747545,34.0094794 C156.49305,34.0094794 157.136094,34.1969428 157.676694,34.5718753 C158.217294,34.9468078 158.629278,35.4568828 158.912657,36.1021154 C159.196036,36.7473481 159.337724,37.4666845 159.337724,38.2601463 C159.337724,38.9925726 159.182957,39.6846615 158.87342,40.3364336 C158.563883,40.9882058 158.102854,41.5146293 157.490318,41.9157199 Z M156.967159,35.0656066 C156.542091,34.6972137 156.028746,34.5130199 155.42711,34.5130199 C154.812395,34.5130199 154.30777,34.671056 153.913219,34.9871328 C153.518668,35.3032096 153.233113,35.7162831 153.056546,36.2263657 C152.879979,36.7364483 152.791697,37.2966588 152.791697,37.907014 C152.791697,38.6525193 152.896327,39.3326192 153.105592,39.9473341 C153.314857,40.562049 153.630929,41.0514158 154.053818,41.4154491 C154.476707,41.7794824 154.993321,41.9614963 155.603676,41.9614963 C156.214032,41.9614963 156.717567,41.7980108 157.114298,41.4710347 C157.511029,41.1440587 157.799853,40.7244458 157.98078,40.2121834 C158.161707,39.699921 158.252169,39.1582388 158.252169,38.5871207 C158.252169,37.8459751 158.144268,37.1658752 157.928464,36.5468006 C157.71266,35.927726 157.392228,35.4339996 156.967159,35.0656066 Z M172.332209,34.8399943 L172.332209,41.7129958 L171.240115,41.9614963 L171.200878,42.3407866 L174.130568,42.3407866 L174.195963,41.9287989 L172.992697,41.7522327 L172.992697,35.4939431 L177.655352,42.4977343 L178.335459,42.3604051 L178.335459,34.7811389 L179.421014,34.5784148 L179.492948,34.205664 L176.550179,34.205664 L176.491323,34.5784148 L177.701129,34.7942179 L177.701129,40.8694019 L173.33929,34.205664 L171.200878,34.205664 L171.135483,34.5718753 L172.332209,34.8399943 Z" id="FOUNDATION"></path>
                        <path d="M79.9590662,29.71087 L0.02096419,29.71087 L0.02096419,0.0090408435 L85.820119,0.0090408435 L85.820119,0.16207143 C85.2362023,0.570564157 84.6889882,0.898320564 84.1784633,1.1453487 C83.6056874,1.42249834 83.0698728,1.63959564 82.5710035,1.7966471 C82.0721341,1.95369857 81.610225,2.05531858 81.1852622,2.10151019 C80.7602994,2.14770179 80.3722957,2.17079725 80.0212395,2.17079725 L79.938095,3.61196819 L83.0421555,3.61196819 L83.2761952,27.3441594 L83.2785709,27.5017907 C83.0349882,27.598723 82.7991329,27.6830981 82.5710035,27.7549166 C82.0721341,27.9119681 81.610225,28.0135881 81.1852622,28.0597797 C80.7602994,28.1059713 80.3722957,28.1290668 80.0212395,28.1290668 L79.9590662,29.71087 Z M10.5670969,22.3709277 L10.5670969,15.9472501 L17.9944742,15.9472501 L17.9944742,13.6498931 L10.5670969,13.6498931 L10.5670969,9.79122566 L18.1506053,9.79122566 L18.1506053,7.49386873 L7.95747791,7.49386873 L7.95747791,22.3709277 L10.5670969,22.3709277 Z M25.9288485,22.3709277 L25.9288485,7.49386873 L23.3192295,7.49386873 L23.3192295,22.3709277 L25.9288485,22.3709277 Z M43.431826,22.3709277 L40.4207271,22.3709277 L37.1196705,16.8171231 L34.5323559,16.8171231 L34.5323559,22.3709277 L31.9227369,22.3709277 L31.9227369,7.49386873 L38.4579367,7.49386873 C41.4021223,7.49386873 43.3203038,9.41205024 43.3203038,12.1554959 C43.3203038,14.8097238 41.5805578,16.2372077 39.7962029,16.5271654 L43.431826,22.3709277 Z M38.1010657,14.5197661 C39.5731585,14.5197661 40.6437714,13.5829798 40.6437714,12.1554959 C40.6437714,10.728012 39.5731585,9.79122566 38.1010657,9.79122566 L34.5323559,9.79122566 L34.5323559,14.5197661 L38.1010657,14.5197661 Z M53.8419927,22.6385809 C57.8567912,22.6385809 59.5965372,20.5196595 59.5965372,18.0438671 C59.5965372,12.4900624 50.942416,14.207504 50.942416,11.4417539 C50.942416,10.3265321 51.9238112,9.59048573 53.4628173,9.59048573 C55.0241278,9.59048573 56.6077428,10.1257922 57.7675735,11.2856229 L59.2619707,9.34513693 C57.8790956,8.00687076 56.005523,7.27082437 53.6858616,7.27082437 C50.429414,7.27082437 48.2658836,9.16670144 48.2658836,11.6201894 C48.2658836,17.1070807 56.9423093,15.1665948 56.9423093,18.2892159 C56.9423093,19.270611 56.0947407,20.3189195 53.9535149,20.3189195 C51.8792023,20.3189195 50.2732829,19.3598288 49.2472788,18.2669114 L47.7974905,20.2743107 C49.1134522,21.6794902 51.098547,22.6385809 53.8419927,22.6385809 Z M70.7650548,22.3709277 L70.7650548,9.79122566 L75.2705509,9.79122566 L75.2705509,7.49386873 L63.6499396,7.49386873 L63.6499396,9.79122566 L68.1554358,9.79122566 L68.1554358,22.3709277 L70.7650548,22.3709277 Z" id="Combined-Shape"></path>
                    </g>
                    <path d="M95.8411455,22.6654237 C99.8559441,22.6654237 101.59569,20.5465023 101.59569,18.0707099 C101.59569,12.5169053 92.9415688,14.2343469 92.9415688,11.4685968 C92.9415688,10.353375 93.922964,9.61732857 95.4619701,9.61732857 C97.0232807,9.61732857 98.6068956,10.152635 99.7667263,11.3124657 L101.261124,9.37197977 C99.8782485,8.0337136 98.0046758,7.2976672 95.6850145,7.2976672 C92.4285668,7.2976672 90.2650365,9.19354428 90.2650365,11.6470323 C90.2650365,17.1339236 98.9414622,15.1934376 98.9414622,18.3160587 C98.9414622,19.2974539 98.0938936,20.3457624 95.9526677,20.3457624 C93.8783551,20.3457624 92.2724357,19.3866716 91.2464317,18.2937543 L89.7966433,20.3011535 C91.1126051,21.706333 93.0976999,22.6654237 95.8411455,22.6654237 Z M112.764208,22.3977705 L112.764208,9.81806849 L117.269704,9.81806849 L117.269704,7.52071156 L105.649092,7.52071156 L105.649092,9.81806849 L110.154589,9.81806849 L110.154589,22.3977705 L112.764208,22.3977705 Z M133.81359,22.3977705 L130.802492,22.3977705 L127.501435,16.8439659 L124.91412,16.8439659 L124.91412,22.3977705 L122.304501,22.3977705 L122.304501,7.52071156 L128.839701,7.52071156 C131.783887,7.52071156 133.702068,9.43889308 133.702068,12.1823387 C133.702068,14.8365666 131.962322,16.2640506 130.177967,16.5540082 L133.81359,22.3977705 Z M128.48283,14.546609 C129.954923,14.546609 131.025536,13.6098226 131.025536,12.1823387 C131.025536,10.7548548 129.954923,9.81806849 128.48283,9.81806849 L124.91412,9.81806849 L124.91412,14.546609 L128.48283,14.546609 Z M149.331473,22.3977705 L149.331473,20.1004136 L141.747965,20.1004136 L141.747965,15.9740929 L149.175342,15.9740929 L149.175342,13.676736 L141.747965,13.676736 L141.747965,9.81806849 L149.331473,9.81806849 L149.331473,7.52071156 L139.138346,7.52071156 L139.138346,22.3977705 L149.331473,22.3977705 Z M165.027791,22.3977705 L165.027791,20.1004136 L157.444283,20.1004136 L157.444283,15.9740929 L164.87166,15.9740929 L164.87166,13.676736 L157.444283,13.676736 L157.444283,9.81806849 L165.027791,9.81806849 L165.027791,7.52071156 L154.834664,7.52071156 L154.834664,22.3977705 L165.027791,22.3977705 Z M176.687006,22.3977705 L176.687006,9.81806849 L181.192502,9.81806849 L181.192502,7.52071156 L169.571891,7.52071156 L169.571891,9.81806849 L174.077387,9.81806849 L174.077387,22.3977705 L176.687006,22.3977705 Z" id="STREET"></path>
                </g>
            </g>
        </g>
    </g>
</svg>